<?xml version="1.0" encoding="UTF-8"?>
<svg version="1.1" xmlns="http://www.w3.org/2000/svg" width="512" height="512">
<path d="M0 0 C1.64715822 -0.00445668 1.64715822 -0.00445668 3.32759237 -0.0090034 C6.99668233 -0.01765508 10.66573953 -0.01919567 14.33483887 -0.02069092 C16.97012483 -0.02532164 19.60540788 -0.03032651 22.24069214 -0.03573608 C29.39395545 -0.04928088 36.54721314 -0.05533828 43.70048714 -0.05974674 C48.17383568 -0.06251607 52.64718208 -0.06675469 57.12052917 -0.07125092 C69.5251273 -0.08343924 81.92972372 -0.09373896 94.3343277 -0.09712601 C95.12727677 -0.09734557 95.92022585 -0.09756514 96.73720369 -0.09779136 C97.53196749 -0.09800964 98.3267313 -0.09822791 99.14557886 -0.09845281 C100.75586605 -0.09889626 102.36615324 -0.09934282 103.97644043 -0.09979248 C104.77518544 -0.10001391 105.57393045 -0.10023534 106.39687985 -0.10046348 C119.32510775 -0.10440735 132.25327914 -0.12185079 145.18148524 -0.145152 C158.47980393 -0.16892521 171.77809434 -0.18133059 185.07643461 -0.18249393 C192.53276367 -0.18340741 199.98901911 -0.18907684 207.44532776 -0.20731354 C213.79734983 -0.22279545 220.14927553 -0.22778775 226.50131291 -0.21957543 C229.73575902 -0.21569711 232.96997316 -0.21812688 236.20440292 -0.23063278 C264.34999141 -0.33301777 289.10559965 3.57612922 310.10632324 24.15606689 C330.39210525 45.15289693 332.51333824 69.54591678 332.41828442 97.15487576 C332.40915006 101.08679849 332.42324475 105.01865285 332.4342041 108.95056152 C332.45190536 116.63270793 332.44818703 124.31469721 332.43655354 131.99684954 C332.42748622 138.24538992 332.42630941 144.49388655 332.4306488 150.74243164 C332.4315682 152.0810761 332.4315682 152.0810761 332.43250617 153.44676387 C332.43378519 155.26023564 332.43508205 157.07370739 332.43639654 158.88717914 C332.44777775 175.85562137 332.43472735 192.82397688 332.41319507 209.79240489 C332.39532633 224.32317416 332.39843114 238.85381556 332.41687012 253.38458252 C332.43832041 270.29610101 332.44667934 287.20754367 332.43442106 304.11907387 C332.43314699 305.92553328 332.4318895 307.73199271 332.4306488 309.53845215 C332.42972315 310.87135294 332.42972315 310.87135294 332.4287788 312.23118103 C332.42533835 318.4655814 332.43112594 324.69993331 332.44056702 330.93432617 C332.45183474 338.54149309 332.44864733 346.14849512 332.42744404 353.75564337 C332.41699738 357.63013873 332.41270131 361.50436008 332.42604065 365.37885284 C332.51567976 393.83914392 328.78315457 416.32343832 308.48913574 437.67169189 C286.62124923 458.4035843 261.0742355 460.60294827 232.54772949 460.52862549 C229.91125416 460.53269719 227.274804 460.53793532 224.63833618 460.54455566 C218.25563325 460.55780995 211.87303688 460.55505267 205.49032998 460.54631774 C200.29728597 460.53950859 195.10427157 460.53863834 189.91122437 460.54188919 C189.16866424 460.54234889 188.42610411 460.54280859 187.66104215 460.54328222 C186.15196839 460.54424151 184.64289464 460.54521416 183.13382089 460.54619999 C169.02388619 460.55472955 154.91401021 460.54495814 140.80408514 460.52879889 C128.72934607 460.51539793 116.65469356 460.51772671 104.57995605 460.53155518 C90.51628097 460.54765419 76.4526572 460.55390581 62.38897419 460.54471838 C60.88583184 460.54376286 59.38268948 460.54281975 57.87954712 460.54188919 C57.14020854 460.54142636 56.40086997 460.54096354 55.63912719 460.54048669 C50.45971268 460.53790972 45.28033105 460.54223967 40.10092163 460.54932785 C33.77835737 460.55779129 27.45590467 460.55536195 21.13335299 460.53948562 C17.91506389 460.53166737 14.6969957 460.53004815 11.47870255 460.53843307 C-16.96786719 460.60567715 -41.226392 456.45325982 -62.45227051 435.86309814 C-77.64260128 419.78688187 -84.42718637 400.6509533 -84.37203979 378.86552429 C-84.37657091 377.54605256 -84.38110202 376.22658082 -84.38577044 374.86712509 C-84.39794781 371.22421369 -84.39774621 367.58139448 -84.39538169 363.93846738 C-84.39497217 360.0016632 -84.40602562 356.06488805 -84.41549683 352.12809753 C-84.43207988 344.42164224 -84.43760519 336.71521755 -84.43872158 329.0087459 C-84.43967352 322.74002381 -84.44379111 316.47131176 -84.45012283 310.20259285 C-84.46772942 292.40745248 -84.47696285 274.6123362 -84.47546189 256.81718706 C-84.47538197 255.8586927 -84.47530206 254.90019834 -84.47521973 253.91265869 C-84.47513797 252.95298599 -84.4750562 251.99331328 -84.47497196 251.00455958 C-84.47415967 235.46390297 -84.49328463 219.92334342 -84.52149646 204.38271486 C-84.55027333 188.40397043 -84.56403405 172.42527325 -84.56230891 156.44650227 C-84.56164657 147.48446462 -84.56706995 138.52252867 -84.58866501 129.56051445 C-84.60694032 121.92757547 -84.61117245 114.29478427 -84.59764616 106.6618328 C-84.59114781 102.77319794 -84.59088454 98.88484607 -84.60835266 94.99623871 C-84.72881656 66.34264112 -81.22103963 44.0909217 -60.66711426 22.32794189 C-43.92080182 6.53746921 -22.5612829 -0.01923467 0 0 Z M-40.10461426 49.14044189 C-50.75187988 63.00713764 -52.26171517 76.63448561 -52.23832703 93.56201172 C-52.24059258 94.77757665 -52.24285814 95.99314158 -52.24519235 97.24554181 C-52.25040036 100.59360662 -52.25118192 103.94161742 -52.24999797 107.28968239 C-52.24979286 110.91080733 -52.25532319 114.53192443 -52.26005554 118.15304565 C-52.26833872 125.23771812 -52.27110932 132.32238226 -52.27166792 139.40705916 C-52.27214417 145.16947832 -52.27420435 150.93189475 -52.27736855 156.69431305 C-52.2861686 173.05489713 -52.29078891 189.41547468 -52.29003807 205.77606115 C-52.28999812 206.65685367 -52.28995816 207.53764619 -52.28991699 208.44512939 C-52.28987611 209.32700524 -52.28983523 210.20888108 -52.28979311 211.11748043 C-52.28938678 225.40488809 -52.29895474 239.69226938 -52.31305536 253.97966942 C-52.32744094 268.67247672 -52.33432435 283.36527117 -52.33346158 298.05808568 C-52.33313038 306.29789803 -52.33584393 314.53768273 -52.34663963 322.77748871 C-52.35577337 329.79338886 -52.35789637 336.80924882 -52.35113021 343.82515237 C-52.34787951 347.39955472 -52.34775544 350.9738801 -52.35648346 354.54827499 C-52.36587801 358.43586419 -52.35953471 362.32334274 -52.35185242 366.2109375 C-52.35699598 367.32283911 -52.36213954 368.43474073 -52.36743897 369.58033633 C-52.29296982 386.7412205 -49.50514356 401.5099039 -37.19445801 414.24591064 C-25.90900898 424.47664481 -13.20785578 427.29362559 1.634552 427.28088379 C3.25887903 427.28534047 3.25887903 427.28534047 4.91602075 427.28988719 C8.54538072 427.29856021 12.17470764 427.30008127 15.80407715 427.30157471 C18.40614899 427.30620388 21.00822015 427.31122868 23.61029053 427.31661987 C30.68076169 427.33018051 37.75122716 427.33622447 44.82170916 427.34063053 C49.24040757 427.343397 53.65910381 427.3476351 58.07780075 427.3521347 C70.3227684 427.36432479 82.56773431 427.37462437 94.8127079 427.3780098 C95.59586302 427.37822936 96.37901815 427.37844893 97.18590524 427.37867515 C97.97088729 427.37889343 98.75586935 427.3791117 99.56463873 427.3793366 C101.15519373 427.37978005 102.74574872 427.38022662 104.33630371 427.38067627 C105.5197479 427.38100841 105.5197479 427.38100841 106.72710006 427.38134727 C119.50296102 427.38529289 132.27876486 427.40274088 145.05460377 427.42603579 C158.18559803 427.4497841 171.31656367 427.46221324 184.44757974 427.46337771 C191.81438521 427.46429256 199.18111626 427.4699967 206.54790115 427.48819733 C213.48033347 427.505265 220.41262267 427.50682497 227.34506989 427.49805832 C229.88465376 427.49728887 232.42424527 427.50161851 234.96380997 427.51151657 C238.44081244 427.52426987 241.91731801 427.51834044 245.39431763 427.50793457 C246.88823577 427.52001918 246.88823577 427.52001918 248.41233408 427.53234792 C262.52691792 427.43410615 275.43617036 423.18717211 285.79382324 413.43341064 C298.36636378 399.71578742 300.05365168 384.48960255 300.02909851 366.71887207 C300.03136407 365.50330714 300.03362962 364.28774221 300.03596383 363.03534198 C300.04117185 359.68727717 300.0419534 356.33926637 300.04076946 352.9912014 C300.04056435 349.37007646 300.04609467 345.74895936 300.05082703 342.12783813 C300.0591102 335.04316567 300.06188081 327.95850153 300.0624394 320.87382463 C300.06291565 315.11140547 300.06497584 309.34898904 300.06814003 303.58657074 C300.07694008 287.22598665 300.0815604 270.86540911 300.08080956 254.50482264 C300.0807696 253.62403012 300.08072964 252.7432376 300.08068848 251.83575439 C300.0806476 250.95387855 300.08060672 250.07200271 300.0805646 249.16340336 C300.08015827 234.8759957 300.08972623 220.58861441 300.10382684 206.30121437 C300.11821242 191.60840707 300.12509583 176.91561262 300.12423307 162.22279811 C300.12390186 153.98298576 300.12661542 145.74320106 300.13741112 137.50339508 C300.14654485 130.48749493 300.14866785 123.47163497 300.14190169 116.45573142 C300.13865099 112.88132906 300.13852693 109.30700369 300.14725494 105.7326088 C300.15664949 101.8450196 300.1503062 97.95754105 300.1426239 94.06994629 C300.15033925 92.40209387 300.15033925 92.40209387 300.15821046 90.70054746 C300.0837413 73.53966329 297.29591505 58.77097989 284.98522949 46.03497314 C273.69978047 35.80423898 260.99862727 32.98725819 246.15621948 33 C244.53189245 32.99554332 244.53189245 32.99554332 242.87475073 32.9909966 C239.24539077 32.98232358 235.61606384 32.98080252 231.98669434 32.97930908 C229.38462249 32.9746799 226.78255133 32.96965511 224.18048096 32.96426392 C217.1100098 32.95070328 210.03954433 32.94465932 202.96906233 32.94025326 C198.55036391 32.93748679 194.13166768 32.93324868 189.71297073 32.92874908 C177.46800308 32.916559 165.22303717 32.90625942 152.97806358 32.90287399 C152.19490846 32.90265443 151.41175334 32.90243486 150.60486624 32.90220864 C149.81988419 32.90199036 149.03490214 32.90177209 148.22613275 32.90154719 C146.63557776 32.90110373 145.04502276 32.90065717 143.45446777 32.90020752 C142.27102358 32.89987537 142.27102358 32.89987537 141.06367142 32.89953652 C128.28781046 32.8955909 115.51200662 32.87814291 102.73616771 32.854848 C89.60517346 32.83109969 76.47420782 32.81867055 63.34319174 32.81750607 C55.97638627 32.81659123 48.60965523 32.81088709 41.24287033 32.79268646 C34.31043802 32.77561879 27.37814881 32.77405881 20.4457016 32.78282547 C17.90611773 32.78359492 15.36652622 32.77926528 12.82696152 32.76936722 C9.34995905 32.75661392 5.87345347 32.76254335 2.39645386 32.77294922 C1.40050843 32.76489281 0.404563 32.75683641 -0.6215626 32.74853587 C-15.83353891 32.85441582 -29.71069 37.79985911 -40.10461426 49.14044189 Z " fill="#000000" transform="translate(132.1046142578125,25.85955810546875)"/>
<path d="M0 0 C0.89700912 -0.00453111 1.79401823 -0.00906223 2.71820945 -0.01373065 C5.7243573 -0.02639226 8.7303244 -0.02475313 11.73649597 -0.02310181 C13.89171583 -0.02908596 16.04693355 -0.03589125 18.20214844 -0.04345703 C24.05758611 -0.06113597 29.91296535 -0.06581322 35.76842713 -0.0670886 C40.6565709 -0.06898745 45.54470105 -0.07634485 50.43283957 -0.08343279 C61.96603153 -0.09972165 73.49919227 -0.1046013 85.03239441 -0.10317993 C96.92881907 -0.10197845 108.82506233 -0.12308066 120.72144109 -0.15466726 C130.93560382 -0.18082076 141.14970727 -0.19154761 151.36390322 -0.19026911 C157.46413115 -0.1897592 163.5641979 -0.1954589 169.66439247 -0.21662521 C175.40262885 -0.23599174 181.14055003 -0.23614267 186.87879753 -0.22159195 C188.98305853 -0.21950078 191.08733916 -0.22422301 193.19156647 -0.23631287 C196.06810363 -0.25176757 198.9435543 -0.24245543 201.82006836 -0.22705078 C203.0640113 -0.24248147 203.0640113 -0.24248147 204.3330844 -0.25822389 C210.01966239 -0.19109945 214.34176296 1.09489202 219.10050964 4.26742554 C223.74356918 9.14859069 224.45778978 13.2344316 224.38175964 19.76351929 C223.82526234 24.71789109 221.07757374 27.4066786 217.47550964 30.57992554 C213.13562204 33.66352988 209.57388505 33.41570434 204.39646912 33.41459656 C203.48427793 33.41827325 202.57208675 33.42194993 201.63225341 33.42573804 C198.55688791 33.43680505 195.48155617 33.44062382 192.40617371 33.44442749 C190.20874422 33.45068985 188.0113158 33.45733644 185.81388855 33.46434021 C179.83032756 33.4817708 173.84677457 33.49230751 167.86319447 33.50054574 C164.12733381 33.50569136 160.39147565 33.51176728 156.65561676 33.51805687 C145.64462648 33.53602057 134.6336408 33.55039898 123.62263845 33.55823327 C121.60712415 33.55967178 119.59160986 33.56112315 117.57609558 33.56259155 C116.90890274 33.56307529 116.24170989 33.56355903 115.55429909 33.56405743 C104.74639439 33.57235759 93.93860038 33.59769371 83.13074401 33.63017223 C72.03619148 33.66324062 60.94168504 33.68092139 49.8470819 33.68444985 C43.61719616 33.68680388 37.38748532 33.69581027 31.15764618 33.72091103 C25.29717602 33.74414151 19.43699653 33.74844511 13.57649231 33.73814964 C11.42462448 33.73765296 9.27274259 33.74401235 7.12091827 33.75770569 C4.18442316 33.7753478 1.24897985 33.76835602 -1.68751526 33.75517273 C-2.54024639 33.76614198 -3.39297752 33.77711122 -4.27154899 33.78841287 C-9.62635954 33.73032256 -12.64128059 32.80420721 -16.89949036 29.26742554 C-21.32922755 24.2390752 -22.19965624 21.38577263 -22.11433411 14.80648804 C-21.71083852 10.03790382 -19.93994932 7.2531235 -16.52449036 4.01742554 C-10.98315747 0.32320361 -6.48180758 -0.02401409 0 0 Z " fill="#000000" transform="translate(154.8994903564453,281.7325744628906)"/>
<path d="M0 0 C0.91219118 -0.00367669 1.82438237 -0.00735338 2.76421571 -0.01114148 C5.8395812 -0.02220849 8.91491295 -0.02602726 11.99029541 -0.02983093 C14.1877249 -0.03609329 16.38515332 -0.04273988 18.58258057 -0.04974365 C24.56614156 -0.06717424 30.54969455 -0.07771095 36.53327465 -0.08594918 C40.26913531 -0.0910948 44.00499346 -0.09717072 47.74085236 -0.10346031 C58.75184264 -0.12142401 69.76282832 -0.13580242 80.77383067 -0.14363671 C82.78934497 -0.14507522 84.80485926 -0.14652659 86.82037354 -0.147995 C87.48756638 -0.14847874 88.15475922 -0.14896248 88.84217003 -0.14946087 C99.65007473 -0.15776103 110.45786874 -0.18309716 121.26572511 -0.21557567 C132.36027764 -0.24864407 143.45478408 -0.26632483 154.54938722 -0.26985329 C160.77927295 -0.27220732 167.00898379 -0.28121371 173.23882294 -0.30631447 C179.0992931 -0.32954495 184.95947259 -0.33384855 190.81997681 -0.32355309 C192.97184463 -0.3230564 195.12372653 -0.32941579 197.27555084 -0.34310913 C200.21204596 -0.36075124 203.14748927 -0.35375947 206.08398438 -0.34057617 C206.93671551 -0.35154542 207.78944664 -0.36251466 208.6680181 -0.37381631 C214.02282865 -0.31572601 217.03774971 0.61038935 221.29595947 4.14717102 C225.72569667 9.17552135 226.59612536 12.02882393 226.51080322 18.60810852 C226.10730763 23.37669274 224.33641844 26.16147305 220.92095947 29.39717102 C215.37962658 33.09139295 210.8782767 33.43861065 204.39646912 33.41459656 C203.49946 33.41912767 202.60245088 33.42365878 201.67825967 33.4283272 C198.67211181 33.44098882 195.66614472 33.43934969 192.65997314 33.43769836 C190.50475328 33.44368252 188.34953557 33.45048781 186.19432068 33.45805359 C180.338883 33.47573253 174.48350377 33.48040978 168.62804198 33.48168516 C163.73989822 33.48358401 158.85176807 33.4909414 153.96362954 33.49802935 C142.43043758 33.51431821 130.89727685 33.51919786 119.36407471 33.51777649 C107.46765004 33.516575 95.57140678 33.53767721 83.67502803 33.56926382 C73.4608653 33.59541731 63.24676185 33.60614417 53.03256589 33.60486567 C46.93233796 33.60435575 40.83227122 33.61005545 34.73207664 33.63122177 C28.99384027 33.6505883 23.25591909 33.65073923 17.51767159 33.63618851 C15.41341059 33.63409734 13.30912995 33.63881957 11.20490265 33.65090942 C8.32836548 33.66636412 5.45291482 33.65705198 2.57640076 33.64164734 C1.74710546 33.65193447 0.91781017 33.66222159 0.06338471 33.67282045 C-5.62319328 33.60569601 -9.94529384 32.31970454 -14.70404053 29.14717102 C-19.34710006 24.26600587 -20.06132066 20.18016496 -19.98529053 13.65107727 C-19.42879323 8.69670547 -16.68110462 6.00791796 -13.07904053 2.83467102 C-8.73915293 -0.24893333 -5.17741593 -0.00110778 0 0 Z " fill="#000000" transform="translate(152.70404052734375,196.8528289794922)"/>
<path d="M0 0 C0.92307042 -0.00694553 1.84614084 -0.01389106 2.7971831 -0.02104706 C5.88567054 -0.03932173 8.97339027 -0.02905126 12.06190491 -0.01878357 C14.27801081 -0.02584179 16.49411189 -0.03458639 18.71020508 -0.04489136 C24.72673574 -0.06740582 30.74300359 -0.0644407 36.75956035 -0.05556989 C41.78206819 -0.05046223 46.80452654 -0.05775078 51.82702929 -0.06504196 C64.35264867 -0.08301983 76.87814145 -0.07662361 89.40374721 -0.05887216 C100.27543831 -0.04417704 111.14685299 -0.05880197 122.01850849 -0.08764232 C133.18892347 -0.11705391 144.35923863 -0.12749549 155.52969748 -0.11846012 C161.79812738 -0.1135287 168.06634243 -0.1157585 174.33474541 -0.13624763 C180.22901852 -0.15459133 186.12277766 -0.14866144 192.01702309 -0.12404823 C194.17974974 -0.11903632 196.34251546 -0.12253988 198.50521088 -0.13519669 C201.4588996 -0.15111464 204.41089324 -0.13618747 207.36450195 -0.11352539 C208.21937366 -0.12536112 209.07424537 -0.13719685 209.95502228 -0.14939123 C215.82195567 -0.0580048 219.48636963 1.42844454 223.7457428 5.5146637 C226.8330342 9.79703564 227.32711378 13.82066565 227.16371155 18.97950745 C226.32058539 24.09342219 223.77127951 27.93552319 219.71774101 31.09572601 C215.61749573 33.05332899 212.10080552 32.93688332 207.61174011 32.90907288 C206.68952412 32.91516398 205.76730812 32.92125508 204.81714618 32.92753077 C201.72567445 32.94418523 198.6346135 32.9393814 195.54310608 32.93458557 C193.32714916 32.94192448 191.11119607 32.95051019 188.89524841 32.96025085 C182.87457157 32.98249457 176.85403148 32.98539608 170.83331919 32.98350334 C165.80838199 32.98338377 160.78347391 32.99194254 155.7585448 33.00028086 C143.22616431 33.02062602 130.69385051 33.02166126 118.1614642 33.01447374 C107.28325013 33.0088991 96.40527164 33.02972099 85.52711262 33.0628342 C74.35221864 33.09658613 63.17741071 33.11126321 52.00245845 33.10711718 C45.73064845 33.10504808 39.45907303 33.11055392 33.18730545 33.13500977 C27.28895942 33.1572491 21.39110403 33.155422 15.49275589 33.13508224 C13.32841105 33.13166723 11.16403337 33.13678233 8.99973297 33.15106583 C6.04381936 33.16922696 3.08957575 33.1565319 0.13371277 33.13612366 C-0.72184106 33.14864151 -1.57739488 33.16115935 -2.45887458 33.17405653 C-8.32904455 33.08722626 -11.99314183 31.60397477 -16.2542572 27.5146637 C-19.82200035 22.56585868 -20.08639597 17.41443404 -19.2542572 11.5146637 C-16.08758149 2.08619984 -8.99164987 -0.08645185 0 0 Z " fill="#000000" transform="translate(152.25425720214844,367.48533630371094)"/>
<path d="M0 0 C1.72786995 -0.01051392 1.72786995 -0.01051392 3.49064636 -0.02124023 C7.29283863 -0.03882445 11.09428473 -0.02719503 14.89648438 -0.01367188 C17.54154605 -0.01636664 20.18660676 -0.02024893 22.83166504 -0.02526855 C28.3730475 -0.03253626 33.9142164 -0.02298053 39.45556641 -0.00390625 C45.85298163 0.0178611 52.24988688 0.01080909 58.64728975 -0.01121187 C64.81324278 -0.03158286 70.97897053 -0.02938633 77.14494324 -0.01768494 C79.76360648 -0.01501706 82.38228275 -0.01828949 85.00093079 -0.02760315 C88.66112722 -0.03776439 92.32034517 -0.02227149 95.98046875 0 C97.60307869 -0.01214539 97.60307869 -0.01214539 99.25846863 -0.02453613 C105.33357944 0.04392787 108.86249764 0.47124457 113.49023438 4.51757812 C117.11857101 8.33687985 117.80023896 11.40036819 117.99023438 16.51757812 C117.80023896 21.63478806 117.11857101 24.6982764 113.49023438 28.51757812 C108.01185121 33.30349658 103.07199609 33.09377323 95.99633789 33.05102539 C94.84603088 33.05964096 93.69572388 33.06825653 92.51055908 33.07713318 C88.71318983 33.09981084 84.91655748 33.09305026 81.11914062 33.08398438 C78.4764738 33.08921922 75.83380885 33.09549519 73.19114685 33.10276794 C67.65396856 33.1146055 62.11699966 33.10893512 56.57983398 33.09399414 C50.19031264 33.07707555 43.80147462 33.09290741 37.4120279 33.12521702 C31.2514026 33.15518273 25.09108888 33.1570874 18.93040276 33.14771843 C16.31534881 33.14689859 13.70028066 33.15376819 11.08526802 33.16848946 C7.42751507 33.18592354 3.7712199 33.17139915 0.11352539 33.14868164 C-1.50369164 33.16621994 -1.50369164 33.16621994 -3.15357971 33.18411255 C-9.94459884 33.09837098 -13.44194037 32.11950209 -18.50976562 27.51757812 C-22.07750878 22.56877311 -22.34190439 17.41734847 -21.50976562 11.51757812 C-20.03113002 7.11508681 -17.41270737 3.83271968 -13.46833801 1.33265686 C-9.21084979 -0.43913781 -4.53810237 -0.03396812 0 0 Z " fill="#000000" transform="translate(154.509765625,111.482421875)"/>
</svg>
