<?xml version="1.0" encoding="UTF-8"?>
<svg version="1.1" xmlns="http://www.w3.org/2000/svg" width="512" height="512">
<path d="M0 0 C1.27726479 -0.00538554 2.55452959 -0.01077108 3.87049937 -0.01631981 C7.37707505 -0.03064415 10.8834131 -0.02657101 14.39000106 -0.019153 C18.18701936 -0.01439092 21.98398847 -0.02695795 25.7809906 -0.03717041 C33.20517451 -0.05430556 40.62927359 -0.05520931 48.05347213 -0.04995751 C54.09326126 -0.04590409 60.13302546 -0.04737323 66.17281342 -0.05270576 C67.03483183 -0.05345419 67.89685024 -0.05420261 68.78499041 -0.05497371 C70.53661405 -0.05650531 72.28823767 -0.05804366 74.03986129 -0.05958868 C90.44127744 -0.07329502 106.8426458 -0.06788954 123.24406084 -0.05640347 C138.2179724 -0.04647671 153.19176029 -0.05940544 168.16565278 -0.08333766 C183.57387835 -0.10777676 198.98204643 -0.1173245 214.39029098 -0.11068493 C223.02756709 -0.10720291 231.66474821 -0.10935704 240.30200958 -0.12693596 C247.65595761 -0.14171843 255.00974374 -0.14221515 262.3636888 -0.12486505 C266.10867931 -0.11640139 269.85338141 -0.11409034 273.59835625 -0.1295166 C291.60369466 -0.19841806 309.01062478 -0.23254944 325.480896 8.07518005 C326.179729 8.41766785 326.87856201 8.76015564 327.59857178 9.11302185 C349.51403173 20.22660851 365.04725536 39.29713807 372.668396 62.38768005 C376.19685845 74.09828576 376.81653106 85.30430502 376.80210876 97.46656799 C376.80397945 98.88670184 376.80628117 100.30683517 376.80897409 101.72696769 C376.81506684 105.61122323 376.81496148 109.49545717 376.81377971 113.3797164 C376.81357506 117.57620669 376.81910063 121.77269016 376.82383728 125.96917725 C376.83213084 134.18463674 376.83489155 142.40008905 376.83544966 150.61555238 C376.83592549 157.29713254 376.8379836 163.97871035 376.84115028 170.66028976 C376.8499538 189.62257998 376.8545702 208.58486455 376.85381981 227.54715683 C376.85375988 229.07938282 376.85375988 229.07938282 376.85369873 230.64256287 C376.85365785 231.66530079 376.85361697 232.68803872 376.85357485 233.7417687 C376.8531686 250.3080134 376.86273362 266.87423534 376.8768371 283.44047345 C376.89121919 300.46898929 376.89810625 317.49749405 376.89724332 334.52601612 C376.89691196 344.07876158 376.89963243 353.6314832 376.91042137 363.18422318 C376.91955058 371.31927807 376.92168185 379.45429832 376.91491195 387.58935614 C376.91165876 391.73499672 376.91154632 395.8805709 376.9202652 400.02620506 C376.92818477 403.8311408 376.92664376 407.6359581 376.91798107 411.44089113 C376.91574381 413.44849592 376.92323169 415.45610455 376.93122071 417.46369469 C376.82849038 444.85267298 368.51718821 467.97509504 349.480896 488.07518005 C332.31662383 504.64347055 309.97417961 512.89808423 286.25450134 512.77536011 C284.98046568 512.78074565 283.70643001 512.78613118 282.39378721 512.79167992 C278.90087201 512.80598518 275.40819575 512.80193729 271.9152683 512.79451311 C268.1312193 512.78974623 264.34721943 512.80232216 260.56318665 512.81253052 C253.16654532 512.82965587 245.76998917 512.83057155 238.37333318 512.82531761 C232.3559745 512.8212627 226.33864084 512.8227351 220.32128334 512.82806587 C219.46217578 512.82881429 218.60306822 512.82956272 217.7179271 512.83033382 C215.972182 512.83186543 214.22643691 512.83340378 212.48069183 512.83494879 C196.13888282 512.84865134 179.79712179 512.84325211 163.4553139 512.83176357 C148.53643123 512.82183512 133.61767265 512.83476915 118.69880911 512.85869776 C103.34479244 512.88313696 87.99083344 512.89268472 72.63679773 512.88604504 C64.03083551 512.88256331 55.42496864 512.88471533 46.81902122 512.90229607 C39.49254559 512.91707857 32.16623244 512.91757511 24.83975979 512.90022516 C21.1089388 512.89176192 17.37840733 512.88944945 13.64760208 512.90487671 C-4.32745401 512.97392793 -21.70206261 512.99367021 -38.144104 504.70018005 C-38.84293701 504.35769226 -39.54177002 504.01520447 -40.26177979 503.66233826 C-61.95152346 492.66321497 -77.92711998 473.10758792 -85.519104 450.13768005 C-88.86189606 438.41907352 -89.62734178 426.79611814 -89.58557129 414.66282654 C-89.58788203 413.23353893 -89.59106264 411.80425251 -89.59502578 410.37496853 C-89.60329821 406.48865043 -89.5992833 402.60243181 -89.59305334 398.71611357 C-89.5884986 394.50882038 -89.5955275 390.30154342 -89.60101318 386.09425354 C-89.60987677 377.86844104 -89.60799875 369.64266518 -89.6021879 361.41685128 C-89.59765943 354.72775235 -89.59706362 348.03866363 -89.59923553 341.3495636 C-89.599542 340.39522759 -89.59984847 339.44089158 -89.60016422 338.4576363 C-89.60080371 336.51853601 -89.60145214 334.57943572 -89.6021094 332.64033544 C-89.60780381 314.48452486 -89.60126879 296.32873452 -89.59050867 278.17292726 C-89.58157397 262.61592066 -89.58312626 247.05894392 -89.59234619 231.50193787 C-89.60306456 213.40826584 -89.60725457 195.31461153 -89.60112166 177.22093678 C-89.60048461 175.28922336 -89.59985587 173.35750993 -89.59923553 171.42579651 C-89.59892698 170.47551415 -89.59861843 169.5252318 -89.59830053 168.54615301 C-89.59657829 161.87002315 -89.59947852 155.19390459 -89.60419464 148.51777649 C-89.6098209 140.37475896 -89.60825045 132.23177996 -89.59763315 124.08876681 C-89.59239987 119.93916756 -89.59027945 115.78963241 -89.59693146 111.64003372 C-89.60294193 107.83287839 -89.59953286 104.02584586 -89.58897635 100.21870148 C-89.58572501 98.20761637 -89.59216742 96.19652256 -89.59909081 94.18544674 C-89.48378082 67.11292405 -80.85926671 44.46119009 -62.144104 24.70018005 C-53.93687318 16.77792252 -44.62459453 11.18651919 -34.269104 6.51268005 C-33.36962036 6.10130798 -33.36962036 6.10130798 -32.45196533 5.68162537 C-21.99154852 1.21977053 -11.27465986 -0.05799469 0 0 Z M10.26268864 103.03560543 C6.96769998 107.67136806 6.79613916 112.90744015 7.668396 118.38768005 C9.3820687 123.20795728 12.31821887 126.71825318 16.668396 129.38768005 C23.29157352 131.4822439 29.44437509 131.6783472 36.35760498 131.66233826 C37.50499146 131.66744919 38.65237793 131.67256012 39.83453369 131.67782593 C43.6112394 131.69167752 47.38776172 131.69076857 51.16448975 131.6884613 C53.79950528 131.69235041 56.4345202 131.69668552 59.0695343 131.70144653 C64.58630997 131.70964144 70.10303437 131.70876338 75.61981201 131.70335388 C81.97849498 131.69731434 88.33695665 131.70963114 94.69560188 131.73092395 C100.83587592 131.75072222 106.97604712 131.75370692 113.11635017 131.75018883 C115.71858299 131.75070121 118.32081941 131.75592339 120.92303276 131.76600075 C124.56545809 131.77837683 128.20737491 131.771566 131.84979248 131.75999451 C132.91760452 131.76763824 133.98541656 131.77528198 135.08558655 131.78315735 C142.66506701 131.73010365 149.06453851 130.65967716 155.543396 126.57518005 C159.40310212 122.60195316 160.8574008 118.99291973 161.168396 113.51268005 C160.98499086 108.21785361 159.42450218 104.16855177 155.668396 100.38768005 C149.34904877 95.74522611 143.83739775 95.81134987 136.15887451 95.85423279 C134.91249207 95.84561722 133.66610962 95.83700165 132.38195801 95.828125 C128.97871757 95.80936543 125.57645459 95.80855167 122.17323804 95.81744647 C119.32542292 95.82257341 116.47769421 95.81525 113.629888 95.8079744 C106.90819008 95.79100028 100.18671932 95.79451577 93.46502686 95.81126404 C86.54554516 95.82818291 79.62669444 95.81234908 72.70728165 95.78004116 C66.7520281 95.75329518 60.79697037 95.74608268 54.84166282 95.75455624 C51.2911506 95.759471 47.74101782 95.75734943 44.19055367 95.73676872 C40.2292243 95.71490352 36.26864822 95.733867 32.30731201 95.75657654 C31.14082626 95.74488434 29.97434052 95.73319214 28.77250671 95.72114563 C21.15178364 95.80991642 15.37420474 97.04332187 10.26268864 103.03560543 Z M11.355896 197.95018005 C10.86476318 198.54959412 10.37363037 199.14900818 9.86761475 199.7665863 C6.63150199 204.14113612 7.13540077 209.15396302 7.668396 214.38768005 C10.18057563 219.50508301 13.69963216 222.80298813 18.7153883 225.48034096 C22.9795027 226.79052979 27.04189796 226.66989267 31.47901917 226.65510559 C32.97154073 226.66190226 32.97154073 226.66190226 34.49421424 226.66883624 C37.83202566 226.68150763 41.16967449 226.67985808 44.50750732 226.6782074 C46.89917715 226.68419093 49.29084504 226.69099608 51.68251038 226.69856262 C57.50721006 226.71441025 63.33186032 226.7206718 69.15658049 226.72178738 C73.89228741 226.72273828 78.627981 226.7268507 83.3636837 226.73318863 C96.79598136 226.75079906 110.22824707 226.76002786 123.66055635 226.75852768 C124.74640353 226.75840781 124.74640353 226.75840781 125.85418701 226.75828552 C126.57897102 226.75820376 127.30375504 226.758122 128.0505022 226.75803776 C139.79451351 226.757225 151.53839652 226.77636064 163.28237072 226.80456226 C175.34658918 226.83330383 187.41074509 226.84710184 199.47499865 226.8453747 C206.24591311 226.84471122 213.01669309 226.85018502 219.78757668 226.8717308 C226.15615889 226.8910861 232.52445704 226.89125589 238.89304924 226.87669754 C241.22951802 226.87460499 243.56600445 226.87933676 245.90244293 226.89141846 C249.09423684 226.90685321 252.28504914 226.89757362 255.4768219 226.88215637 C256.39949995 226.8924435 257.32217801 226.90273062 258.272816 226.91332948 C264.81575943 226.84358008 270.41068839 225.5548033 275.22990352 220.86959207 C279.53202183 215.84549076 280.02158545 212.60080491 279.94573975 206.14549255 C279.41395343 200.85758919 276.41434701 197.92775663 272.605896 194.57518005 C269.08721068 191.95488248 266.74106085 191.26341169 262.47413921 191.25625229 C261.18535682 191.25049057 261.18535682 191.25049057 259.87053841 191.24461246 C258.45402536 191.24591218 258.45402536 191.24591218 257.00889587 191.24723816 C256.00601211 191.24426704 255.00312835 191.24129591 253.96985418 191.23823476 C250.59356224 191.22953061 247.2173057 191.22803806 243.84100342 191.22654724 C241.42668074 191.2219203 239.0123588 191.21689581 236.59803772 191.21150208 C230.02777495 191.1983646 223.45751955 191.19189399 216.88724685 191.18749142 C212.78503715 191.1847291 208.68282982 191.18049177 204.58062172 191.17598724 C193.22362383 191.16379459 181.86662782 191.15349523 170.50962353 191.15011215 C169.78270589 191.14989259 169.05578826 191.14967302 168.30684282 191.1494468 C167.2138526 191.14911938 167.2138526 191.14911938 166.09878176 191.14878535 C164.62223065 191.14834189 163.14567953 191.14789532 161.66912842 191.14744568 C160.93670755 191.14722425 160.20428668 191.14700282 159.44967125 191.14677468 C147.58134442 191.14282651 135.71307899 191.12537191 123.84477588 191.10208616 C111.66085578 191.07837403 99.47696648 191.06591037 87.29302293 191.06474423 C80.45174047 191.0638274 73.610538 191.05807304 66.76927757 191.03992462 C60.33512611 191.02291637 53.90108602 191.02126999 47.46691704 191.03006363 C45.10380904 191.03083603 42.740693 191.02646472 40.37760544 191.01660538 C37.15450351 191.00394525 33.93194481 191.00973068 30.70884705 191.02018738 C29.77119717 191.01213097 28.8335473 191.00407457 27.86748379 190.99577403 C20.96349864 191.04824875 15.85169831 192.33951571 11.355896 197.95018005 Z M10.730896 293.51268005 C7.00585262 298.70516476 7.03592354 303.09858774 7.668396 309.38768005 C10.02374036 314.27954911 13.38574179 317.19846948 17.668396 320.38768005 C20.41834559 321.30432992 22.03122256 321.514357 24.86265278 321.51910782 C26.15143517 321.52486954 26.15143517 321.52486954 27.46625358 321.53074765 C28.41059562 321.52988117 29.35493765 321.52901469 30.32789612 321.52812195 C31.33077988 321.53109307 32.33366364 321.53406419 33.36693782 321.53712535 C36.74322975 321.5458295 40.1194863 321.54732205 43.49578857 321.54881287 C45.91011125 321.5534398 48.32443319 321.55846429 50.73875427 321.56385803 C57.30901705 321.57699551 63.87927244 321.58346612 70.44954515 321.58786869 C74.55175484 321.59063101 78.65396217 321.59486834 82.75617027 321.59937286 C94.11316817 321.61156551 105.47016417 321.62186488 116.82716846 321.62524796 C117.91754491 321.6255773 117.91754491 321.6255773 119.02994917 321.62591331 C119.75860932 321.62613158 120.48726947 321.62634986 121.23801023 321.62657475 C122.71456134 321.62701822 124.19111246 321.62746478 125.66766357 321.62791443 C126.40008444 321.62813586 127.13250531 321.62835729 127.88712075 321.62858543 C139.75544757 321.6325336 151.623713 321.64998819 163.49201611 321.67327395 C175.67593622 321.69698608 187.85982551 321.70944974 200.04376906 321.71061587 C206.88505152 321.71153271 213.72625399 321.71728706 220.56751442 321.73543549 C227.00166588 321.75244374 233.43570597 321.75409012 239.86987495 321.74529648 C242.23298295 321.74452408 244.596099 321.74889539 246.95918655 321.75875473 C250.18228848 321.77141486 253.40484718 321.76562943 256.62794495 321.75517273 C258.03441976 321.76725734 258.03441976 321.76725734 259.4693082 321.77958608 C265.50358607 321.73372169 269.9616493 320.93554015 274.53167725 316.6337738 C275.00991943 316.03693787 275.48816162 315.44010193 275.980896 314.82518005 C276.47202881 314.22576599 276.96316162 313.62635193 277.46917725 313.0087738 C280.70529 308.63422398 280.20139122 303.62139708 279.668396 298.38768005 C277.15621636 293.27027709 273.63715983 289.97237198 268.62140369 287.29501915 C264.35728929 285.98483032 260.29489403 286.10546744 255.85777283 286.12025452 C254.36525127 286.11345785 254.36525127 286.11345785 252.84257776 286.10652387 C249.50476633 286.09385248 246.1671175 286.09550203 242.82928467 286.09715271 C240.43761484 286.09116917 238.04594696 286.08436403 235.65428162 286.07679749 C229.82958193 286.06094986 224.00493167 286.05468831 218.18021151 286.05357273 C213.44450458 286.05262182 208.708811 286.04850941 203.97310829 286.04217148 C190.54081064 286.02456105 177.10854492 286.01533225 163.67623564 286.01683243 C162.59038846 286.01695229 162.59038846 286.01695229 161.48260498 286.01707458 C160.39542896 286.01719723 160.39542896 286.01719723 159.28628979 286.01732235 C147.54227848 286.01813511 135.79839547 285.99899946 124.05442127 285.97079785 C111.99020281 285.94205628 99.9260469 285.92825827 87.86179334 285.9299854 C81.09087888 285.93064889 74.3200989 285.92517509 67.54921532 285.9036293 C61.1806331 285.88427401 54.81233495 285.88410421 48.44374275 285.89866257 C46.10727397 285.90075511 43.77078754 285.89602335 41.43434906 285.88394165 C38.24255515 285.8685069 35.05174285 285.87778649 31.85997009 285.89320374 C30.93729204 285.88291661 30.01461398 285.87262948 29.06397599 285.86203063 C21.64043529 285.94116741 15.67080786 287.74375045 10.730896 293.51268005 Z M11.105896 387.88768005 C7.71574563 392.26702443 7.2574342 396.33808777 7.32855225 401.7509613 C7.88305196 406.05311428 9.62181218 409.32100888 12.668396 412.38768005 C18.49289655 416.46144521 22.8610153 416.96386042 29.87138367 416.90234375 C31.39096982 416.91276204 31.39096982 416.91276204 32.94125468 416.92339081 C36.32831038 416.94165459 39.7146652 416.93139782 43.10174561 416.92112732 C45.53312199 416.92818606 47.96449397 416.93693089 50.39585876 416.94723511 C56.30989929 416.96740661 62.22376238 416.96875532 68.13781517 416.96060956 C72.94595107 416.95430276 77.7540309 416.95545281 82.56216621 416.96188164 C83.24719759 416.96278329 83.93222896 416.96368495 84.63801887 416.96461393 C86.02977829 416.96646518 87.4215377 416.96832774 88.8132971 416.97020148 C101.85663235 416.98677043 114.89985935 416.97806857 127.94318808 416.96121591 C139.86817466 416.94652058 151.79290924 416.96114646 163.71786337 416.98998607 C175.97200557 417.01940037 188.22603155 417.03034639 200.4802075 417.02080387 C201.86707499 417.01978135 203.25394249 417.01878674 204.64081001 417.01782036 C205.66427312 417.01710577 205.66427312 417.01710577 206.70841224 417.01637675 C211.50829428 417.01421525 216.30806594 417.0240026 221.10792351 417.03859138 C227.57341546 417.05796913 234.0385535 417.05100045 240.50403023 417.02639198 C242.87597037 417.02138127 245.24794614 417.0248805 247.61985779 417.03754044 C250.85991894 417.05346509 254.09843629 417.03852372 257.33842468 417.01586914 C258.74374109 417.03362273 258.74374109 417.03362273 260.17744774 417.05173498 C266.49103056 416.96215402 270.81236161 415.50522666 275.668396 411.38768005 C279.4942528 406.93115132 280.31164835 402.63802666 280.05511475 396.81736755 C279.26450753 391.85011818 276.91990223 388.67395035 273.418396 385.07518005 C267.00877789 381.14200531 260.037119 381.09619436 252.73825073 381.12698364 C251.76658553 381.1231581 250.79492033 381.11933255 249.79381073 381.11539108 C246.55289406 381.10511028 243.31215619 381.10904388 240.07122803 381.11302185 C237.74147376 381.10867266 235.41172093 381.10348882 233.08197021 381.09753418 C226.76377604 381.08415528 220.44564173 381.08356429 214.12743616 381.08609748 C208.18088843 381.08730346 202.23435072 381.08108642 196.28780602 381.07566402 C183.7900011 381.0647989 171.2922232 381.06694608 158.79441677 381.07304887 C147.3752947 381.0782169 135.95625797 381.06696377 124.53715278 381.04795065 C112.79601432 381.02855205 101.05491618 381.0203198 89.31376159 381.0240739 C82.72841212 381.02588564 76.14314081 381.02326134 69.55780411 381.00935936 C63.36403477 380.99677299 57.17043607 380.99873298 50.97666931 381.01177025 C48.70715655 381.01413379 46.43763174 381.01140934 44.16813278 381.00314713 C41.06272785 380.99265939 37.95789336 381.00079694 34.85250854 381.01345825 C33.51531806 381.00239682 33.51531806 381.00239682 32.15111363 380.99111193 C24.39647377 381.05732341 16.51931866 381.87644185 11.105896 387.88768005 Z " fill="#000000" transform="translate(112.33160400390625,-0.3876800537109375)"/>
</svg>
