<?xml version="1.0" encoding="UTF-8"?>
<svg version="1.1" xmlns="http://www.w3.org/2000/svg" width="512" height="512">
<path d="M0 0 C9.37961181 6.87941727 17.14026108 16.68567722 19.421875 28.35546875 C19.57048308 30.74380022 19.66965927 33.13537749 19.73828125 35.52734375 C19.75906235 36.20976135 19.77984344 36.89217896 19.80125427 37.59527588 C19.86639552 39.76524231 19.92546904 41.93532499 19.984375 44.10546875 C20.02759397 45.58074096 20.07120932 47.05600162 20.11523438 48.53125 C20.22204018 52.13920041 20.32340653 55.74728008 20.421875 59.35546875 C21.42863281 59.67257813 22.43539063 59.9896875 23.47265625 60.31640625 C45.38019997 67.47914716 64.41641257 78.92605466 80.94970703 94.93457031 C82.4357185 96.36883014 83.94147583 97.78004651 85.44921875 99.19140625 C107.28972774 119.95111884 121.29336135 148.03089145 127.421875 177.35546875 C127.69898315 178.6384082 127.69898315 178.6384082 127.98168945 179.94726562 C130.14516588 191.62360346 129.84689581 203.52201194 129.984375 215.35546875 C130.12687374 245.63809783 130.12687374 245.63809783 133.109375 275.73046875 C133.28235107 276.85839844 133.45532715 277.98632812 133.63354492 279.1484375 C138.99214532 312.3480061 151.41824636 344.54846286 170.421875 372.35546875 C170.82083984 372.94827637 171.21980469 373.54108398 171.63085938 374.15185547 C177.50719249 382.84097444 184.04502439 390.8262973 190.96679688 398.69873047 C192.5560368 400.50822412 194.14116779 402.32095255 195.71875 404.140625 C196.21213867 404.70789307 196.70552734 405.27516113 197.21386719 405.85961914 C200.7429769 410.22963838 199.92300189 416.03099558 199.421875 421.35546875 C197.2432701 425.95474575 194.95058936 428.14878814 190.421875 430.35546875 C187.03778988 430.73266691 187.03778988 430.73266691 183.07669163 430.73578548 C182.34334255 430.7404454 181.60999348 430.74510532 180.85442171 430.74990645 C178.38962888 430.76188611 175.92538427 430.75244979 173.46058655 430.7431488 C171.67863025 430.74732042 169.89667661 430.75279699 168.11472791 430.75946862 C163.21207575 430.77396446 158.30959111 430.7696656 153.40692961 430.7623018 C148.12190191 430.75758266 142.83691112 430.77006884 137.55189514 430.78031921 C127.19590645 430.79753709 116.83997835 430.79834105 106.48397905 430.79310631 C98.06881076 430.78906901 89.6536604 430.79050293 81.23849297 430.79585457 C79.44367356 430.7969772 79.44367356 430.7969772 77.61259518 430.79812251 C75.18201323 430.79965395 72.75143129 430.8011923 70.32084935 430.80273748 C47.51465653 430.81647328 24.70849799 430.8110172 1.90230595 430.79955227 C-18.9737708 430.78961827 -39.84975894 430.80256156 -60.72582202 430.82648646 C-82.14879362 430.85085364 -103.5717239 430.86049123 -124.99470907 430.85383373 C-137.02714302 430.85033628 -149.0595088 430.85260827 -161.0919323 430.87008476 C-171.33467188 430.88477696 -181.57729529 430.88548127 -191.82003253 430.86801385 C-197.0480963 430.85947696 -202.27595227 430.85741974 -207.50400543 430.87266541 C-212.28759976 430.88644253 -217.07080689 430.88183967 -221.85437841 430.86242617 C-223.58716292 430.85864433 -225.31997794 430.86165052 -227.05273544 430.87203782 C-229.40466022 430.88513698 -231.75523456 430.87368907 -234.10710049 430.85604 C-236.06808765 430.855879 -236.06808765 430.855879 -238.06869072 430.85571474 C-243.13817397 430.13309438 -246.3120619 427.99785634 -249.41796875 423.96875 C-251.54767614 419.17153033 -251.3764237 414.48068056 -250.578125 409.35546875 C-249.10850242 406.1511152 -247.01137965 403.88100251 -244.578125 401.35546875 C-236.87868083 393.07823034 -230.03175306 384.6310347 -223.578125 375.35546875 C-222.45277344 373.74091797 -222.45277344 373.74091797 -221.3046875 372.09375 C-197.68380913 336.74770638 -184.05349708 295.38698554 -182.05078125 252.9609375 C-182.00799042 252.05901672 -181.96519958 251.15709595 -181.92111206 250.22784424 C-181.60555592 243.06807867 -181.45766273 235.91190205 -181.3671875 228.74609375 C-181.35284164 227.67201767 -181.33849579 226.59794159 -181.32371521 225.49131775 C-181.26668172 221.08555726 -181.21162868 216.67992446 -181.17675781 212.27392578 C-180.82780089 171.35571802 -168.82074652 133.96637826 -140.62109375 103.609375 C-139.2025989 102.04441988 -137.84214464 100.4256615 -136.53125 98.76953125 C-133.59528886 95.14068328 -130.17263235 92.31632897 -126.578125 89.35546875 C-125.65 88.58976562 -124.721875 87.8240625 -123.765625 87.03515625 C-108.06538989 74.51421875 -90.66587414 65.49667326 -71.578125 59.35546875 C-71.57401611 58.48446533 -71.56990723 57.61346191 -71.56567383 56.71606445 C-71.53836141 53.41825389 -71.4889384 50.12219352 -71.42553711 46.82495117 C-71.40264091 45.41035041 -71.38802954 43.99558605 -71.38256836 42.58081055 C-71.3127491 27.45151356 -67.51118832 15.79584184 -56.99609375 4.68359375 C-41.74951 -9.70977485 -17.37512065 -11.0832209 0 0 Z M-36.578125 28.35546875 C-42.22025699 35.9431635 -40.578125 43.89491975 -40.578125 53.35546875 C-30.678125 53.35546875 -20.778125 53.35546875 -10.578125 53.35546875 C-9.66288253 39.93215623 -9.66288253 39.93215623 -15.015625 28.54296875 C-19.62904883 24.60468012 -22.16830913 23.91000995 -28.0703125 24.0390625 C-31.77034413 24.50588892 -33.83626197 25.88110455 -36.578125 28.35546875 Z " fill="#000000" transform="translate(281.578125,6.64453125)"/>
<path d="M0 0 C6.22648141 3.48343112 10.66198421 9.35713113 15.1875 14.75 C15.68330566 15.3378125 16.17911133 15.925625 16.68994141 16.53125 C43.2041111 48.20830115 59.9164321 85.14108577 67.1875 125.75 C67.414375 127.00296875 67.64125 128.2559375 67.875 129.546875 C69.20478805 138.30131303 69.44742936 147.03099965 69.5625 155.875 C69.58860352 157.04998047 69.61470703 158.22496094 69.64160156 159.43554688 C69.66312167 170.09107641 69.66312167 170.09107641 65.1875 174.75 C59.96490143 178.80630398 54.53409858 178.52397544 48.1875 177.75 C43.67415736 175.61210085 41.24464674 173.297377 39.1875 168.75 C38.40589514 164.78733254 38.01859244 160.9134977 37.828125 156.8828125 C35.29022732 110.06634186 19.56631604 66.88860278 -12.6875 32.375 C-22.94153306 21.35079503 -22.94153306 21.35079503 -23.4375 14.25 C-23.12351926 9.20886484 -21.14114882 5.49143641 -17.8125 1.75 C-12.29809521 -2.17135452 -6.17834481 -2.48902644 0 0 Z " fill="#000000" transform="translate(411.8125,52.25)"/>
<path d="M0 0 C4.14812733 2.30362023 6.37627159 4.90579793 7.8125 9.4375 C8.73455842 14.32001888 8.31215733 18.17855851 5.8125 22.5 C3.28768656 26.10385383 0.26678797 29.02175803 -2.890625 32.06640625 C-21.72788724 51.51235553 -34.42920197 76.09317506 -43.1875 101.4375 C-43.56648438 102.52732178 -43.56648438 102.52732178 -43.953125 103.63916016 C-49.64626815 120.382536 -52.50904221 138.18255317 -52.86035156 155.84301758 C-53.01108193 162.24700264 -53.3354127 168.25298677 -57.625 173.3125 C-62.73512778 177.55016694 -65.74424991 177.87148098 -72.234375 177.75390625 C-76.1925156 177.32981976 -78.31061819 176.16684941 -81.1875 173.4375 C-83.72197844 169.84422862 -84.57530627 167.37491947 -84.62109375 162.9921875 C-84.63253418 161.92895264 -84.64397461 160.86571777 -84.65576172 159.77026367 C-84.64561035 158.62920166 -84.63545898 157.48813965 -84.625 156.3125 C-84.61742676 155.12052002 -84.60985352 153.92854004 -84.60205078 152.70043945 C-83.65565231 100.0717042 -61.76685041 48.12093161 -25.625 10.05078125 C-23.84597668 8.14346297 -22.21279307 6.25026037 -20.5859375 4.22265625 C-15.10508129 -2.14192108 -7.54301667 -3.24070346 0 0 Z " fill="#000000" transform="translate(115.1875,52.5625)"/>
<path d="M0 0 C45.54 0 91.08 0 138 0 C132.35988609 16.92034172 118.64897882 30.01809482 103 38 C91.71193301 43.07898066 81.53012817 45.37964296 69.1875 45.3125 C68.12305664 45.30758545 67.05861328 45.3026709 65.96191406 45.29760742 C58.5982051 45.18752438 51.94137885 44.61483107 45 42 C44.01386719 41.64808594 43.02773437 41.29617188 42.01171875 40.93359375 C23.97390058 33.98891915 9.66477828 21.30521729 1 4 C0.67 2.68 0.34 1.36 0 0 Z " fill="#000000" transform="translate(187,467)"/>
</svg>
